# xmcd CD database file
#
# Track frame offsets:
#	150
#	14350
#	30165
#	46193
#	59934
#	76622
#	88261
#	104918
#	116467
#	137589
#	147449
#	160299
#	173954
#
# Disc length: 2569 seconds
#
# Revision: 0
# Processed by: cddbd v1.5.2PL0 Copyright (c) Steve Scherf et al.
# Submitted via: CDex 1.51
#
DISCID=ae0a070d
DTITLE=The Pigs - The Pigs
DYEAR=2007
DGENRE=Country
TTITLE0=Buster The Bomb
TTITLE1=My Heart Is Like A Brick
TTITLE2=Marion The Beagle
TTITLE3=Where Its At
TTITLE4=Dont Dump Your Lover On The Phone
TTITLE5=Baby One More Time
TTITLE6=Sofa People
TTITLE7=George
TTITLE8=Sometime It's Hard
TTITLE9=Crazier Than You
TTITLE10=Total Eclipe Of THe Heart
TTITLE11=Crazy
TTITLE12=Busy Thinkin'
EXTD=YEAR: 2007
EXTT0=
EXTT1=
EXTT2=
EXTT3=
EXTT4=
EXTT5=
EXTT6=
EXTT7=
EXTT8=
EXTT9=
EXTT10=
EXTT11=
EXTT12=
PLAYORDER=
